<svg width="512" height="512" viewBox="0 0 512 512" fill="none" xmlns="http://www.w3.org/2000/svg">
<g clip-path="url(#clip0_2_1378)">
<path fill-rule="evenodd" clip-rule="evenodd" d="M306.075 256.785C280.622 251.87 261.179 247.191 256.908 246.131L256.878 245.808L256.849 245.719C261.327 244.778 283.303 240.598 307.136 242.776C350.147 246.72 345.168 188.801 310.907 198.866C323.368 166.227 275.172 153.131 266.894 195.893C261.945 221.498 257.202 240.981 256.201 245.072C256.112 245.043 256.024 245.042 255.936 245.042L255.818 245.072C254.904 240.628 250.692 218.673 252.872 194.834C256.819 151.865 198.843 156.839 208.918 191.067C176.218 178.618 163.139 226.737 205.943 235.007C231.543 239.98 251.045 244.689 255.17 245.69C255.14 245.778 255.111 245.896 255.14 245.984V246.102C250.603 247.044 228.656 251.223 204.853 249.045C161.872 245.101 166.821 303.021 201.082 292.955C188.621 325.594 236.816 338.661 245.094 295.898C249.484 273.384 253.667 255.579 255.287 248.839C255.965 262.112 254.61 275.415 251.87 288.364C248.954 302.285 244.564 315.882 239.969 329.42C235.167 342.87 230.748 356.967 228.921 371.505C226.948 386.044 227.272 401.024 230.129 415.563V415.592L230.159 415.74C230.689 418.006 232.957 419.418 235.226 418.889C237.523 418.33 238.937 416.063 238.407 413.797C235.226 400.259 234.342 386.221 235.697 372.3C236.345 365.325 237.523 358.379 239.144 351.522C240.734 344.635 242.826 337.896 244.888 330.98C248.983 317.206 252.872 303.286 255.258 289.012C257.202 277.593 258.086 265.968 257.556 254.401C258.97 263.819 260.678 279.918 259.117 296.987C255.17 339.926 313.175 334.982 303.1 300.754C335.77 313.204 348.88 265.055 306.075 256.785Z" fill="#00AB37"/>
<g clip-path="url(#clip1_2_1378)">
<mask id="mask0_2_1378" style="mask-type:luminance" maskUnits="userSpaceOnUse" x="0" y="0" width="512" height="512">
<path d="M512 0H0V512H512V0Z" fill="white"/>
</mask>
<g mask="url(#mask0_2_1378)">
<path fill-rule="evenodd" clip-rule="evenodd" d="M360.62 261.484C307.697 251.288 267.269 241.58 258.387 239.382L258.326 238.711L258.265 238.528C267.575 236.574 313.271 227.904 362.825 232.422C452.256 240.603 441.904 120.449 370.666 141.33C396.576 73.621 296.365 46.452 279.152 135.163C268.862 188.28 259 228.698 256.917 237.185C256.733 237.123 256.55 237.123 256.366 237.123L256.121 237.185C254.222 227.965 245.463 182.419 249.995 132.965C258.204 43.8267 137.656 54.1447 158.605 125.15C90.6129 99.3246 63.4161 199.148 152.418 216.304C205.648 226.622 246.198 236.391 254.773 238.466C254.712 238.65 254.651 238.894 254.712 239.077V239.321C245.279 241.275 199.645 249.945 150.152 245.427C60.7822 237.245 71.0729 357.399 142.311 336.519C116.401 404.228 216.612 431.336 233.824 342.624C242.951 295.918 251.649 258.981 255.018 244.999C256.427 272.535 253.609 300.131 247.913 326.995C241.849 355.873 232.722 384.08 223.166 412.165C213.182 440.067 203.994 469.311 200.196 499.472C196.092 529.633 196.766 560.709 202.707 590.87V590.931L202.769 591.236C203.871 595.937 208.588 598.868 213.304 597.769C218.082 596.609 221.022 591.908 219.92 587.207C213.304 559.122 211.467 529.999 214.284 501.121C215.632 486.651 218.082 472.242 221.451 458.017C224.759 443.73 229.108 429.748 233.396 415.401C241.91 386.827 249.995 357.949 254.957 328.338C259 304.649 260.837 280.533 259.735 256.539C262.675 276.076 266.228 309.472 262.981 344.883C254.773 433.961 375.382 423.704 354.433 352.698C422.364 378.524 449.622 278.64 360.62 261.484Z" fill="#00AB37"/>
</g>
</g>
</g>
<defs>
<clipPath id="clip0_2_1378">
<rect width="512" height="512" fill="white"/>
</clipPath>
<clipPath id="clip1_2_1378">
<rect width="512" height="512" fill="white"/>
</clipPath>
</defs>
</svg>
